<svg id="Camada_1" data-name="Camada 1" xmlns="http://www.w3.org/2000/svg" viewBox="0 0 636.98 131.81"><defs><style>.cls-1{fill:#fff;}</style></defs><path class="cls-1" d="M135.91,239.43h0a.63.63,0,0,1,.11.12Z" transform="translate(66 -184.61)"/><path d="M22.6,225.82a36,36,0,0,1-14.18,7.25A6.65,6.65,0,0,1,6,232.81c.48-.72.8-1.74,1.48-2.11,3.14-1.73,6.31-3.28,9-5.84,4.72-4.56,2.63-9.13-1.16-12-5-3.8-10.88-5.36-16.88-6.62-6.87-1.44-13.83-1.15-20.79-1.17a2.34,2.34,0,0,0-2.57,2c-2.62,8.79-.74,16.48,5.49,23.16.23.24.6.42.67.69a18.72,18.72,0,0,1,.34,2.12c-.7,0-1.56.28-2.08,0a23.58,23.58,0,0,1-8.18-8.19,24.11,24.11,0,0,1-3.86-14.55c.06-1.15,0-2.31,0-3.76-2.26.59-4.14,1.18-6.07,1.52a7.29,7.29,0,0,1-2.44-.46c.49-.72.81-1.74,1.49-2.1a38.68,38.68,0,0,1,6.46-2.85,4.07,4.07,0,0,0,2.71-2.46,25.88,25.88,0,0,1,19.71-15.06,25.64,25.64,0,0,1,22.4,6.3,21.84,21.84,0,0,1,2.78,2.83c.38.49.31,1.32.45,2a6.14,6.14,0,0,1-2.26-.2c-1.48-.73-2.74-2-4.28-2.49A53.22,53.22,0,0,0-2,190.79c-6-.67-13.9,3.23-18.17,8.52,2.47-.13,4.73-.31,7-.36a95.65,95.65,0,0,1,9.58.05,91.09,91.09,0,0,1,11.75,1.57c5.83,1.26,11.42,3.37,15.77,7.66C30.05,214.33,28.31,220.91,22.6,225.82Z" transform="translate(66 -184.61)"/><rect x="150.66" y="2.41" width="1.65" height="129.4"/><path d="M-12.86,296.09c-.82,0-1.53.06-2.23,0-3.63-.42-6.78,2.39-7.48,5.81-.75,3.69-.39,7.54,2.88,9.65,3.64,2.33,7.44,1.38,11.21.5a1.42,1.42,0,0,0,.7-1.13c0-7.34,0-14.69,0-22.08C-11.75,290-12.25,290.73-12.86,296.09Zm.07,12.7c-1.77.23-3.47.43-4.56-1.25a5.89,5.89,0,0,1-.07-6.16c1-1.82,2.74-1.6,4.63-1.44Z" transform="translate(66 -184.61)"/><path d="M-52.79,298.31c-2.22-2.92-5.45-2.23-8.7-2.11v-7.72A39.34,39.34,0,0,0-65,290.6a2.39,2.39,0,0,0-.92,1.6c-.07,6.59,0,13.18,0,20.48,2.74,0,5.31.13,7.86,0a7,7,0,0,0,6.33-4.6C-50.5,304.77-50.52,301.31-52.79,298.31Zm-3.16,7.17c-.66,2.83-1.86,3.6-5.49,3.31,0-2.56-.08-5,.07-7.44a2.24,2.24,0,0,1,1.52-1.42C-57.18,299.49-55.21,302.36-55.95,305.48Z" transform="translate(66 -184.61)"/><path d="M194,261.13c0,.18,0,.38.07.57-5-2-8.28-1.51-10.71,1.64-2.23,2.92-2.37,8-.05,10.89,2.2,2.78,5.62,4.49,10.64,1.84,1.55,1.53,3.27.62,4.83.83V260.57C197,260.77,195.48,260.94,194,261.13Zm-3.78,12A4.27,4.27,0,0,1,186,269a4.32,4.32,0,0,1,4.14-4.53,4.33,4.33,0,0,1,0,8.65Z" transform="translate(66 -184.61)"/><path d="M202.5,230.07c-3.88-2.54-7.36-2.06-10.57,1.35-2.37,2.51-2.57,7.93-.42,10.7,2.85,3.65,6.48,4.27,11,1.88.73,1.25,1.27,1.36,4.33.88V228.64C205.38,229.47,203.5,227.81,202.5,230.07Zm-3.94,11.24c-2.3,0-4-1.87-4-4.41a4.23,4.23,0,0,1,4-4.25,4.38,4.38,0,0,1,4.26,4.28A4.29,4.29,0,0,1,198.56,241.31Z" transform="translate(66 -184.61)"/><path d="M124.91,228.59a8,8,0,0,0-9.29,5c-1.78,4.11,0,9.12,3.66,10.91,4,2,9.46,1.13,11.49-2.66-1.63-.92-2.86-2.54-5.23-1-2,1.35-4.11.47-5.93-2.07h11.83C132.32,232.7,128.74,229.24,124.91,228.59Zm-5.14,6.79c.64-2.07,1.71-2.8,4-2.73,1.87.06,2.58.67,3.14,2.73Z" transform="translate(66 -184.61)"/><path d="M171.83,228.51c-4.4,0-8.6,3.62-8.26,8.41-.48,4.5,3.74,8.69,8.53,8.57a8.56,8.56,0,0,0,8.45-8.54C180.4,232,177.05,228.56,171.83,228.51ZM176,237c0,2.2-2,4.33-4,4.3a4.94,4.94,0,0,1-4.28-4.32c0-1.9,2.28-4.45,4.09-4.27C173.93,232.92,176.3,234.36,176,237Z" transform="translate(66 -184.61)"/><path d="M52.56,304.85c0-.71,0-1.09,0-1.48a7,7,0,0,0-4-6.72c-2.21-1.1-7.64-.87-9.4,1.29s-2.16,4.66-2.1,7.33c.17,6.52,5.92,9.16,11.18,7A6.65,6.65,0,0,0,52.56,304.85Zm-5.37,2.75c-.45.7-1.47,1.54-2.16,1.48a3.62,3.62,0,0,1-2.55-1.58,6.65,6.65,0,0,1,.31-6.65,2.67,2.67,0,0,1,4.34,0,21,21,0,0,1,1.11,3.44A13.69,13.69,0,0,1,47.19,307.6Z" transform="translate(66 -184.61)"/><path d="M9,302.3c0-2.55-1.1-4.67-3.42-5.52-5.77-2.09-10.43-.22-11.19,6.43-.48,4.24.87,8.07,4.84,9.1a20.19,20.19,0,0,0,5.77.34c3.17-.11,3.73-1,2.93-4.08-3.07-.32-7.1,2.22-9-2.93H9Zm-9.73-.08A2.73,2.73,0,0,1,2,299.54a2.38,2.38,0,0,1,2.55,2.68Z" transform="translate(66 -184.61)"/><path d="M-24.92,302c-.33-3.53-1.93-6-6.51-5.87a16.17,16.17,0,0,1-2.51,0c-2.71-.38-4.17,1.26-2.68,4,4.32-.87,6.18-.38,7.25,2.24-1.36,0-2.51-.05-3.66,0-2.52.12-5,1.86-5.33,3.66-.55,3.25.41,5.25,3.26,6.37,3.19,1.24,6.39.58,9.53-.32a1.47,1.47,0,0,0,.67-1.14A82.93,82.93,0,0,0-24.92,302Zm-6.1,7.3c-1.31,0-2.89-.12-3.12-1.82s1.14-2,4.79-1.54C-29.87,307.16-28.3,309.28-31,309.26Z" transform="translate(66 -184.61)"/><path d="M178.89,260.86v16c-1.46-.22-3.1.89-4.41-.92-1.9,1-3.85,1.89-6.27,1.07s-4-2.53-4.16-4.91c-.29-3.71-.07-7.46-.07-11.28h4.54v8.77c0,2.49.66,3.43,2.5,3.56s3.19-.94,3.44-3.17c.17-1.51.31-3,.38-4.57s0-2.95,0-4.56Z" transform="translate(66 -184.61)"/><path d="M.83,248.72c0,1.12-.52,1.45-1.55,1.42-1.68,0-3.36,0-5.35,0,0-5.55.24-10.91-.1-16.23-.21-3.16.77-5,3.64-6.06.46-.17.83-.67,1.29-.79,1.08-.26,2.08-.31,2.07,1.33Q.79,238.54.83,248.72Z" transform="translate(66 -184.61)"/><path d="M159.14,239c1.23.68,2.32,1.31,3.41,1.91-.87,3.08-4.39,5.19-8.31,4.48-4.37-.77-6.6-2.79-7.37-8-.51-3.4,2.43-7.54,5.79-8.51,4.53-1.31,8.69.69,10,3.91L159.21,235c-3.09-2.63-5-2.8-6.91-.68a4.12,4.12,0,0,0,.21,5.56C154.39,241.72,156.37,241.47,159.14,239Z" transform="translate(66 -184.61)"/><path d="M145.53,241.63c-.31,2.26-2.14,3-4.05,3.54-3.75,1.14-7.66-.44-9-3.79l3.43-1.95h0l.23.23c2.08,2.09,3.55,2.26,5.44.32-1.79-.67-3.39-1.31-5-1.88-2.38-.83-3.34-2.09-3.34-4.53,0-2.79.77-3.71,4-4.75a6.85,6.85,0,0,1,8.18,3.28c-.53.31-1.11.56-1.61.91-1.15.84-2,1.28-3.32-.11-.88-1-2.25-.52-3.11,1.1,1.46.51,2.86,1,4.28,1.49C145.13,236.65,146,238,145.53,241.63Z" transform="translate(66 -184.61)"/><path d="M-10.39,264.06a23.83,23.83,0,0,1,0,3.7c-4.37-.24-8.49-.12-10,4.56-1.08,3.34-1.35,7.11,1.46,9.73,3.35,3.13,7.49,2,11.41,1V260.68C-9.41,261.18-10.75,261.81-10.39,264.06Zm0,16.95c-3.6,1-5.35.54-6.9-1.74-1-1.5-.66-5.94.61-7.5s3.71-2.15,6.29-1.16Z" transform="translate(66 -184.61)"/><path d="M131,260.74c-.54,1.63-.95,3.07-1.49,4.45-1.33,3.51-2.79,7-4,10.49-.35,1-.81,1.45-1.74,1.24-1.37-.31-3.16,1-4.07-1.05-.13-.29-.27-.57-.39-.88-1.71-4.63-3.42-9.26-5.21-14.08,4.58-.53,4.58-.53,6,3.54.4,1.14.89,2.24,1.3,3.37s.73,2.16,1.21,3.64c1.08-3.24,2.08-6.1,3-9,.39-1.25,1-2,2.43-1.75A21.08,21.08,0,0,0,131,260.74Z" transform="translate(66 -184.61)"/><path d="M22.54,309.31c-.17,1.71-1.59,2.74-3.15,3.23a12,12,0,0,1-7.31-.25,2.77,2.77,0,0,1-1.3-3.64c.16-.23.74-.28,1.09-.22a19.54,19.54,0,0,0,3.52.69,8,8,0,0,0,2.62-1,10.64,10.64,0,0,0-1.66-1.86A21.1,21.1,0,0,0,13.58,305a4.32,4.32,0,0,1-2.53-4.9c.27-1.95,1.3-3.46,3.3-3.63a28.75,28.75,0,0,1,7,.11c1.65.26.59,1.95.82,3a9.4,9.4,0,0,1-1.72.36c-1.17,0-2.36-.13-3.51,0-.47.05-.89.57-1.64,1.09l5.33,2.65C23.16,304.85,22.74,307.21,22.54,309.31Z" transform="translate(66 -184.61)"/><path d="M161.4,272.77v4.16a40,40,0,0,1-4.25,0c-2.2-.24-3.64-2.12-3.68-4.66-.06-2.38,0-4.76,0-7.25l-2.58-.17v-4l2.34-.22c.63-3.33.63-3.33,4.75-4.13v4.2h3.39v4.11L158,265c0,2.28-.05,4.53.05,6.76,0,.37.67.89,1.13,1A9.26,9.26,0,0,0,161.4,272.77Z" transform="translate(66 -184.61)"/><path d="M37.27,311.73c-4,2.39-10.09,1.15-11.87-2.32-2-4-1.57-11.55,3.6-12.86,2.25-.57,4.77-.12,7.16,0,.23,0,.74,1.11.58,1.36-.76,1.13-1,2.77-3.33,2.06s-4.17,1.17-4.17,3.68a8.11,8.11,0,0,0,.33,3c.85,2.2,2.71,2.77,5.8,1.9Z" transform="translate(66 -184.61)"/><path d="M51.78,275.84c0-.64,0-1.28,0-1.94a6.48,6.48,0,0,0-4.9-6.11c-3.25-.76-6.44.4-7.89,2.91A10.92,10.92,0,0,0,38,278c.89,5.51,5.58,7.25,10.2,5.2C51.36,281.77,51.9,279,51.78,275.84Zm-5.42,5.43c-2.35,1.18-5-.54-5.39-3.57a13.52,13.52,0,0,1,.36-4.73,3.53,3.53,0,0,1,3.85-3,4.5,4.5,0,0,1,3.59,4c.06.64,0,1.29,0,2.08C49,278.12,48.55,280.18,46.36,281.27Z" transform="translate(66 -184.61)"/><path d="M-40.55,267.85v15.56a69,69,0,0,1-8.26.43c-2.76-.15-5-2.84-5.09-5.82-.14-3.35,0-6.7,0-10.23h3c0,2.94.09,5.84,0,8.72-.14,3.47,2.15,5.59,5.7,4.84a14.32,14.32,0,0,1,1.76-.09V267.85Z" transform="translate(66 -184.61)"/><path d="M-23.7,283.83h-3a72,72,0,0,1,.07-8.7c.44-3.54-2.92-6.09-6.44-4.83a6.07,6.07,0,0,1-1.18.16v13.38h-3c0-4.87,0-9.64,0-14.41,0-.41.58-1.15.92-1.16a39.81,39.81,0,0,1,8.16-.11c2.81.43,4.36,2.88,4.38,5.71C-23.68,277.16-23.7,280.44-23.7,283.83Z" transform="translate(66 -184.61)"/><path d="M7.07,281.35c-.08-2.91,0-5.82,0-8.72a4.44,4.44,0,0,0-3.4-4.52,12.76,12.76,0,0,0-7.32.19v2.37c5.41-1.46,8.17-.35,8,3.08-1.77.19-3.56.28-5.31.61a4.31,4.31,0,0,0-3.85,4.48c0,1.88,1,4.47,3.4,4.68,2.19.2,4.42,0,6.62.09C6.93,283.71,7.1,282.77,7.07,281.35Zm-2.74.12a28.52,28.52,0,0,1-3.92,0,2.53,2.53,0,0,1-2.33-3.11c.19-1.85,1.73-1.84,2.94-2.12a16.27,16.27,0,0,1,3.31,0Z" transform="translate(66 -184.61)"/><path d="M35,272.65a4.8,4.8,0,0,0-3.4-4.53,12.08,12.08,0,0,0-7.24.13v2.42c5.26-1.45,7.48-.58,7.94,3.07-1.82.2-3.66.28-5.46.62a4.16,4.16,0,0,0-3.77,4.14c-.15,2.77.76,4.5,3.4,5,2.32.41,4.79,0,7.19.08,1.17,0,1.38-.61,1.37-1.6C35,278.85,35.1,275.75,35,272.65Zm-2.67,8.4a4.74,4.74,0,0,1-4.91.08,3.54,3.54,0,0,1-1.6-2.45,2.73,2.73,0,0,1,1.61-2,28.09,28.09,0,0,1,4.9-.65Z" transform="translate(66 -184.61)"/><rect x="249.12" y="37.38" width="4.36" height="23"/><rect x="268.19" y="69.23" width="4.36" height="23"/><path d="M-38.49,298.16c0,.87.19,1.7-1.27,1.75-2.83.11-4.16,1.7-4.17,4.58,0,2.52,0,5.05,0,7.56a2.61,2.61,0,0,1-.13.5h-4.78v-7.46c0-2.2-.09-4.4,0-6.59.05-.81.5-2.22.91-2.27,1.28-.18,3.08-.91,3.43,1.09a43,43,0,0,1,4.76-1.19C-38.18,295.92-38.51,297.25-38.49,298.16Z" transform="translate(66 -184.61)"/><path d="M18.77,284.27c.76,4-1.6,5.68-6.08,4.14v-1.85a6.71,6.71,0,0,0,2.05.16,6.16,6.16,0,0,0,1.74-1c-.39-.6-.65-1.53-1.2-1.75-5.78-2.27-7.35-10.28-3-14.69,1.72-1.74,6.31-2,8-1,.57.32.66,1.49,1,2.27-3-.7-5.48-1-7.38,1.45-1.36,1.72-1.41,5.83-.09,7.66,2,2.75,4.81,1.61,7.41,1.44C21.59,283,21.59,283,18.77,284.27Z" transform="translate(66 -184.61)"/><path d="M-62.09,267.73h6v2.52h-5.71v13.58h-3V272.59c0-1.74,0-3.49,0-5.23,0-5.12,3.73-7.75,8.78-6.05v1.48a24.06,24.06,0,0,0-5,1.76C-61.72,264.94-61.71,266.44-62.09,267.73Z" transform="translate(66 -184.61)"/><path d="M149.36,260.26v4.84c-3.72.6-4.57,1.6-4.58,5.32v6.36h-4v-16h3.88l.23,1.18Z" transform="translate(66 -184.61)"/><path d="M-7.78,230.9v19.23a29.94,29.94,0,0,1-3.8-.06,1.65,1.65,0,0,1-1.06-1.21c-.08-4.79,0-9.57,0-14.36a1.3,1.3,0,0,1,.38-.94C-10.92,232.7-9.5,231.9-7.78,230.9Z" transform="translate(66 -184.61)"/><rect x="198.54" y="76.22" width="4.36" height="16"/><path d="M137.39,256.74c0,1.63-.91,2.35-2.78,2.33-1.78.18-2.4-.95-2.53-2.42a2.76,2.76,0,0,1,2.71-2.85A2.86,2.86,0,0,1,137.39,256.74Z" transform="translate(66 -184.61)"/><path d="M30,265.46c-1.59-.41-3.25-.54-5.21-.84-.17-1.54.94-2.56,2.91-2.14s3.9,1.87,5.9,0C34.08,265,32.51,266.12,30,265.46Z" transform="translate(66 -184.61)"/><path d="M335.57,254.92a23.2,23.2,0,0,1-17.68,19.83c-9.16,2.22-18.71-.29-23.95-6.44l5-9.1c3.82,1.69,7.15,3.74,10.76,4.63,5.6,1.39,11.73-3.2,12.95-9,1-4.67-2.85-9.93-8.24-11.31a12.26,12.26,0,0,0-13.78,5.8,162.56,162.56,0,0,0-7.93,14.32c-6.84,14.51-29.77,15.59-39.8,4.28-11-12.36-4.69-31.84,11.66-35.78a27,27,0,0,1,21.16,3.2l-5.47,9.84c-3.51-.67-6.73-1.71-10-1.81a10,10,0,0,0-10.14,9.8c-.08,5.59,4.29,10,10,10.43s9.92-1.81,12.54-6.93c2-3.94,3.94-7.94,6-11.86a25.8,25.8,0,0,1,34-11.12C331,237.64,336.39,246.66,335.57,254.92Z" transform="translate(66 -184.61)"/><path d="M570.92,243.78v-10H557.19c-.23,1.19-.42,2.12-.61,3.15-10.92-6.46-21.31-5.66-28,2s-7.15,19.48-1,27.41a19,19,0,0,0,13.81,7.8c5.72.5,11-.53,15.27-5.53.2,1.82.31,2.82.47,4.33,3.71,0,7.11-.13,10.5,0,2.47.12,3.39-.63,3.34-3.26C570.81,261.07,570.92,252.42,570.92,243.78Zm-23.2,19c-5.63.08-9.64-3.7-9.7-9.14,0-5.76,3.76-9.62,9.53-9.65,5.61,0,10,4.16,10,9.48S553.2,262.74,547.72,262.8Z" transform="translate(66 -184.61)"/><path d="M484.17,261.43c-2.76-.09-5.08.24-7.48,2.17-2.95,2.36-6.74,1.82-10,.15-3-1.54-4.21-4.28-4-8.06h30.47c1.33-10.36-4.47-19.77-13.82-22.08a38.89,38.89,0,0,0-12.83-.76c-8.09.79-14.23,5-16.8,12.93-2.66,8.19-1.83,16.11,4.62,22.45,8,7.88,25,8.35,33.44.93,2.11-1.87,3.44-4.63,5.65-7.71C489.39,261.45,486.77,261.52,484.17,261.43Zm-12.63-20.61a8.13,8.13,0,0,1,8.44,6.81H463.16C463.79,243.48,467,240.9,471.54,240.82Z" transform="translate(66 -184.61)"/><path d="M378.54,260.76c-.56,7-5.93,12.06-13.74,13.06a44.85,44.85,0,0,1-14.2-.55c-7.24-1.41-11.71-7.33-11.84-14.72-.15-8.18,0-16.36,0-24.87h13.32v7.14c0,5-.06,10,0,15,.07,4.64,2.55,7.11,6.88,7.08s6.45-2.23,6.5-6.94c.06-7.07,0-14.13.06-21.19a8.17,8.17,0,0,1,.34-1.24c3.75,0,7.7-.08,11.62.11.57,0,1.51,1.41,1.5,2.16C379,244.15,379.21,252.49,378.54,260.76Z" transform="translate(66 -184.61)"/><path d="M437.31,272.21c-7.89,3.56-20.49,2.43-26.91-2.59,1.5-2.82,3-5.68,4.49-8.4,3.64,1.13,7,2.33,10.49,3.18a6.24,6.24,0,0,0,3.94-.46,4,4,0,0,0,2.17-2.66,3.65,3.65,0,0,0-2-2.76,50.63,50.63,0,0,0-7.5-2.14c-4.11-1-7.6-2.84-8.49-7.34-1-4.89.12-9.39,4.29-12.5a21.71,21.71,0,0,1,6.34-3.14c5.6-1.77,14.26-1.05,20.08,1.52-1.42,2.66-2.83,5.28-4.31,8a33.08,33.08,0,0,0-5.33-1.31,14.08,14.08,0,0,0-5.62.5c-2.41.86-2.5,3.49-.18,4.63a24.68,24.68,0,0,0,5.85,1.66c6.75,1.38,10.41,4.63,11,9.93C446.4,264.34,443.26,269.53,437.31,272.21Z" transform="translate(66 -184.61)"/><path d="M414,233.75c-1,1.92-2.15,3.48-2.53,5.21-.94,4.26-3.34,6-7.69,6.51s-6.49,4.27-6.6,9.11c-.11,5.13-.14,10.25,0,15.38.06,2.19-.61,2.94-2.87,3-11.19.41-11.18.47-11.18-10.79,0-8.54.07-17.08-.05-25.62,0-2.42.8-3.2,3.16-3.09,3.49.17,7,0,10.74,0,.11,2.2.19,4,.32,6.73C401.63,234.38,406.88,232.4,414,233.75Z" transform="translate(66 -184.61)"/><path d="M526.75,234.07a21.7,21.7,0,0,1-1.08,3c-.48.88-1.37,1.57-1.79,2.47-1.51,3.31-3.54,5.38-7.51,6.19s-5.5,4.52-5.63,8.43c-.18,5.12-.26,10.25-.11,15.36.07,2.75-1,3.47-3.57,3.49-10.52.06-10.52.14-10.52-10.5q0-12.28,0-24.58c0-4.39,0-4.39,4.54-4.39h3.08c6.06,0,6.06,0,6.73,6.7,3.47-4.93,7.7-7.16,13.09-6.92A13.44,13.44,0,0,1,526.75,234.07Z" transform="translate(66 -184.61)"/></svg>