<svg id="Camada_1" data-name="Camada 1" xmlns="http://www.w3.org/2000/svg" viewBox="0 0 692.31 106.64"><defs><style>.cls-1,.cls-2{fill:#1e1e1e;}.cls-1{stroke:#1e1e1e;stroke-miterlimit:10;}</style></defs><path class="cls-1" d="M292.67,216.39v10.49c0,1.26-.52,1.8-1.76,1.8H280.35c-1.22,0-1.73-.52-1.73-1.74q0-5.28,0-10.56c0-1.26.51-1.74,1.78-1.74h10.49C292.18,214.64,292.66,215.12,292.67,216.39Z" transform="translate(95.65 -196.68)"/><path class="cls-1" d="M275.79,221.68c0,1.77,0,3.55,0,5.32,0,1.13-.51,1.68-1.63,1.68H263.38a1.44,1.44,0,0,1-1.6-1.63c0-3.6,0-7.19,0-10.79a1.41,1.41,0,0,1,1.59-1.62h10.86a1.39,1.39,0,0,1,1.56,1.58C275.81,218,275.79,219.86,275.79,221.68Z" transform="translate(95.65 -196.68)"/><path class="cls-1" d="M309.39,199.54v10.71c0,1.18-.53,1.68-1.71,1.69H297.05c-1.17,0-1.71-.53-1.71-1.69,0-3.54,0-7.09,0-10.63,0-1.22.51-1.71,1.75-1.71h10.63C308.86,197.92,309.38,198.42,309.39,199.54Z" transform="translate(95.65 -196.68)"/><path class="cls-1" d="M292.66,199.58q0,5.35,0,10.71a1.45,1.45,0,0,1-1.66,1.64H280.3c-1.14,0-1.67-.51-1.68-1.64,0-3.6,0-7.19,0-10.79,0-1.11.53-1.59,1.63-1.6H291C292.15,197.92,292.66,198.41,292.66,199.58Z" transform="translate(95.65 -196.68)"/><path class="cls-1" d="M292.66,233.14q0,5.36,0,10.71a1.44,1.44,0,0,1-1.64,1.66H280.31c-1.16,0-1.68-.48-1.69-1.61q0-5.4,0-10.78c0-1.14.54-1.63,1.68-1.64q5.35,0,10.71,0A1.45,1.45,0,0,1,292.66,233.14Z" transform="translate(95.65 -196.68)"/><path class="cls-1" d="M309.38,233.07q0,5.43,0,10.86c0,1.08-.53,1.57-1.64,1.58H297a1.43,1.43,0,0,1-1.62-1.61q0-5.4,0-10.78a1.44,1.44,0,0,1,1.62-1.63q5.42,0,10.85,0A1.4,1.4,0,0,1,309.38,233.07Z" transform="translate(95.65 -196.68)"/><path class="cls-1" d="M292.66,249.94q0,5.43,0,10.86a1.42,1.42,0,0,1-1.59,1.57H280.22a1.39,1.39,0,0,1-1.59-1.56c0-3.63,0-7.28,0-10.92,0-1,.54-1.51,1.62-1.51H291.1A1.37,1.37,0,0,1,292.66,249.94Z" transform="translate(95.65 -196.68)"/><path class="cls-1" d="M275.79,238.54c0,1.78,0,3.55,0,5.32,0,1.15-.49,1.65-1.64,1.65H263.37a1.41,1.41,0,0,1-1.59-1.62c0-3.6,0-7.19,0-10.79a1.41,1.41,0,0,1,1.6-1.61q5.4,0,10.78,0c1.12,0,1.63.52,1.63,1.66C275.81,235,275.79,236.75,275.79,238.54Z" transform="translate(95.65 -196.68)"/><path class="cls-1" d="M275.79,249.93q0,5.43,0,10.85c0,1.08-.54,1.59-1.63,1.59H263.38a1.42,1.42,0,0,1-1.6-1.62q0-5.38,0-10.77c0-1.11.49-1.6,1.59-1.6h10.86A1.36,1.36,0,0,1,275.79,249.93Z" transform="translate(95.65 -196.68)"/><path class="cls-1" d="M276.52,204.89a7.74,7.74,0,1,1-7.72-7.71A7.71,7.71,0,0,1,276.52,204.89Z" transform="translate(95.65 -196.68)"/><path class="cls-1" d="M253.71,272.08V286c-1.18,0-2.36,0-3.54,0-.18,0-.4-.3-.52-.52-1.77-3-3.51-6.09-5.27-9.14l-.44-.72V286h-2.53V272.05c1.16,0,2.34,0,3.52,0,.18,0,.38.33.51.55q2.56,4.39,5.11,8.81c.14.25.3.48.54.89V272.08Z" transform="translate(95.65 -196.68)"/><path class="cls-1" d="M335.89,276.65a5.56,5.56,0,0,0-5-4.72,11.33,11.33,0,0,0-2.47,0,5.53,5.53,0,0,0-5.21,4.44,14.36,14.36,0,0,0-.29,3.53c.12,4,2.56,6.35,6.58,6.37,3.28,0,5.56-1.54,6.33-4.4A10.49,10.49,0,0,0,335.89,276.65Zm-3.37,5.14a2.87,2.87,0,0,1-2.89,1.92,2.94,2.94,0,0,1-3.09-1.73,7.2,7.2,0,0,1,0-5.94,3,3,0,0,1,3.12-1.69,2.84,2.84,0,0,1,2.83,1.89,22.32,22.32,0,0,1,.62,2.77A22.07,22.07,0,0,1,332.52,281.79Z" transform="translate(95.65 -196.68)"/><path class="cls-1" d="M271.76,288.91c-1.76-.18-3.54-.05-5.31-.06,0,0-.08,0-.14.09v13.82c1.81,0,3.57.14,5.29,0,3.94-.39,5.95-2.51,6.27-6.38C278.22,292.11,276,289.33,271.76,288.91Zm2.25,9.85c-1.05,1.73-2.88,1.59-4.67,1.57v-9c1.84,0,3.75-.27,4.78,1.63A5.65,5.65,0,0,1,274,298.76Z" transform="translate(95.65 -196.68)"/><path class="cls-1" d="M298.92,296.77c.32-.19.55-.33.77-.48a3.87,3.87,0,0,0,1.73-4.1,3.5,3.5,0,0,0-2.77-3c-2.24-.59-4.52-.26-6.79-.33v13.94h2.95v-5.2c1.43-.23,1.44-.23,2.1.82.82,1.31,1.64,2.64,2.47,3.95.1.17.27.42.43.43,1,0,2,0,3.16,0Zm-1.46-2a22.21,22.21,0,0,1-2.61.43v-3.94a23.6,23.6,0,0,1,2.46.31,1.42,1.42,0,0,1,1.13,1.5A1.55,1.55,0,0,1,297.46,294.72Z" transform="translate(95.65 -196.68)"/><path class="cls-1" d="M308.73,272.07v8.87c0,2.84-1.43,4.69-4.23,5.13a10.54,10.54,0,0,1-3.67-.12,4.24,4.24,0,0,1-3.52-4.26c-.15-3.17,0-6.35,0-9.58h3v8.22c0,.19,0,.38,0,.58a2.76,2.76,0,0,0,4.24,2.5,2.12,2.12,0,0,0,1.18-2c.06-2.11.05-4.22.07-6.34v-3.05Z" transform="translate(95.65 -196.68)"/><path class="cls-1" d="M311.6,288.77c-1.05,0-2,0-3,0-.54,0-.74.19-.91.67-.94,2.73-1.9,5.45-2.86,8.17L303,302.8c1,0,1.83,0,2.7,0,.44,0,.59-.16.7-.54.26-.93.56-1.85.86-2.8,1.58,0,3.1,0,4.63,0a.78.78,0,0,1,.51.45c.29.8.5,1.62.78,2.42.05.17.24.41.38.41.95,0,1.91,0,3,0C314.88,298.05,313.25,293.44,311.6,288.77ZM308,296.93c.58-1.92,1.13-3.76,1.75-5.78.62,2,1.2,3.88,1.78,5.78Z" transform="translate(95.65 -196.68)"/><polygon class="cls-1" points="359 103.64 359 106.07 351.06 106.07 351.06 92.2 359 92.2 359 94.57 354.06 94.57 354.06 97.6 358.69 97.6 358.69 100.08 354.06 100.08 354.06 103.64 359 103.64"/><polygon class="cls-1" points="384.55 103.65 384.55 106.06 376.58 106.06 376.58 92.18 384.51 92.18 384.51 94.58 379.58 94.58 379.58 97.59 384.18 97.59 384.18 100.09 379.57 100.09 379.57 103.65 384.55 103.65"/><path class="cls-1" d="M265.42,283a3.88,3.88,0,0,1-3.48,3,9.21,9.21,0,0,1-5.08-.48c-.33-.13-.5-.28-.49-.67,0-.75,0-1.49,0-2.26,1,.33,1.95.69,2.9.91a7.3,7.3,0,0,0,1.87.1,1.38,1.38,0,0,0,.66-2.61c-.84-.5-1.71-.92-2.57-1.37a4.64,4.64,0,0,1-2.51-2.6,3.77,3.77,0,0,1,2.55-5,8.58,8.58,0,0,1,6.17.72c-.33.78-.63,1.52-.94,2.25-.82-.23-1.57-.48-2.35-.65a4.19,4.19,0,0,0-1.37-.07,1.36,1.36,0,0,0-1.27,1,1.26,1.26,0,0,0,.58,1.45c.54.36,1.14.65,1.71,1s1,.47,1.42.74A3.88,3.88,0,0,1,265.42,283Z" transform="translate(95.65 -196.68)"/><polygon class="cls-1" points="343.32 94.57 343.32 98.14 347.97 98.14 347.97 100.59 343.31 100.59 343.31 106.07 340.41 106.07 340.41 92.17 348.34 92.17 348.34 94.57 343.32 94.57"/><polygon class="cls-1" points="372.97 75.42 372.97 77.82 369.27 77.82 369.27 89.31 366.25 89.31 366.25 77.85 362.5 77.85 362.5 75.42 372.97 75.42"/><polygon class="cls-1" points="390.76 75.42 390.76 77.82 387.06 77.82 387.06 89.31 384.04 89.31 384.04 77.85 380.29 77.85 380.29 75.42 390.76 75.42"/><polygon class="cls-1" points="417.03 75.4 417.03 77.83 413.3 77.83 413.3 89.29 410.28 89.29 410.28 77.86 406.55 77.86 406.55 75.4 417.03 75.4"/><polygon class="cls-1" points="422.59 103.67 422.59 106.07 414.05 106.07 414.05 92.19 416.98 92.19 416.98 103.67 422.59 103.67"/><rect class="cls-1" x="330.65" y="75.41" width="2.84" height="13.91"/><rect class="cls-1" x="375.26" y="75.4" width="2.89" height="13.89"/><path class="cls-2" d="M596.65,234.56a7.58,7.58,0,0,1-.26,1.12q-8.49,20-17,39.91c-1.8,4.18-4.38,7.66-9,9.05H564c.1-2.35.21-4.7.31-7.09.37-.05.63-.13.89-.14a8.68,8.68,0,0,0,8.63-8,4.11,4.11,0,0,0-.49-1.87q-6.12-15.15-12.28-30.29c-.32-.79-.63-1.58-1.07-2.69,2.68,0,5.15-.08,7.61.06.46,0,1,.86,1.28,1.44,2.77,6.79,5.48,13.6,8.2,20.4.32.79.66,1.58,1.17,2.83.41-.89.68-1.43.9-2,2.87-7,5.8-13.89,8.56-20.89a2.48,2.48,0,0,1,2.91-1.89C592.57,234.66,594.55,234.56,596.65,234.56Z" transform="translate(95.65 -196.68)"/><path class="cls-2" d="M426.23,234.7v3.71q0,7.53,0,15.07c0,11.3-7.5,17.66-18.7,15.91-6.88-1.08-11.25-4.81-12.67-11.74v-23H403c0,.73.09,1.43.09,2.12,0,6-.07,12,0,18a7.32,7.32,0,0,0,10.37,6.71,7,7,0,0,0,4.45-6.87c0-5.89,0-11.77,0-17.65V234.7Z" transform="translate(95.65 -196.68)"/><path class="cls-2" d="M559,268.6h-7.94c0-.68-.09-1.38-.09-2.08,0-5.62,0-11.24,0-16.86a17.85,17.85,0,0,0-.33-3.73c-.64-2.91-2.38-4.49-5.07-4.82a6,6,0,0,0-6.25,3.31,13.67,13.67,0,0,0-1.13,5.13c-.12,6.27,0,12.55,0,19H530v-2.16c0-5.55,0-11.11,0-16.66a18.89,18.89,0,0,0-.41-4.12,5.34,5.34,0,0,0-4.55-4.4c-2.52-.43-4.79.33-6,2.49a13.14,13.14,0,0,0-1.7,5.75c-.22,5.61-.08,11.24-.08,16.86v2.32h-7.9V234.73h7.82c0,.92.11,1.81.18,3.07a12.71,12.71,0,0,1,9.58-4c3.69.12,6.64,1.58,8.46,4.47,2.44-1.31,4.65-3,7.13-3.75,8.72-2.76,15.71,1.55,16.41,10.6C559.46,252.89,559,260.71,559,268.6Z" transform="translate(95.65 -196.68)"/><path class="cls-2" d="M458.21,221.58v15.77c-8.87-6-18.49-3.73-23.53,2a19.1,19.1,0,0,0-1.23,23,15.88,15.88,0,0,0,8.83,6.37,17.6,17.6,0,0,0,15.88-2.93c.09,1.11.16,1.94.23,2.83h7.84v-47ZM448.46,262a10,10,0,0,1-10.21-10.52c.06-6,4.39-10.38,10.19-10.35a10.44,10.44,0,0,1,0,20.87Z" transform="translate(95.65 -196.68)"/><path class="cls-2" d="M504.8,254.06c1.93-9.33-4.09-19.61-15-20.47-7.92-.62-15.11,3.33-18,10.26-3.22,7.63-1.38,16.84,4.5,21.61,5.1,4.13,11,4.81,17.24,3.39a18,18,0,0,0,9.8-6.07c-1.76-1-3.33-1.85-4.82-2.81a1.67,1.67,0,0,0-2.27.12,12.47,12.47,0,0,1-9.76,2.31c-4.6-.63-8.05-4.31-7.72-8.34Zm-16.65-13.54c4.65,0,8.24,2.86,8.63,7.06H478.87C479.25,243.55,483.2,240.55,488.15,240.52Z" transform="translate(95.65 -196.68)"/><path d="M31.74,291.61c-12.1,5.47-24.4,5.33-36.15-.93-6-3.18-9.26-9.52-8.55-15.27,4.16,0,8.33,0,12.52,0,.33,0,.87.59,1,1,1.42,5.84,4.62,8.65,11.47,9.12a37.93,37.93,0,0,0,9.91-.82c3.07-.61,5.22-2.45,5.52-5.43.31-3.14-1.74-5-4.74-6.09s-6.49-1.85-9.75-2.75c-4.55-1.22-9.24-2.17-13.63-3.75-6.94-2.51-10.56-7.14-10.23-13.89.26-5.37,3.09-9.42,8.13-12.35,9.1-5.3,24.7-5.2,33.73.19a15.3,15.3,0,0,1,8,13.88H25.54a10.28,10.28,0,0,1-.41-1.22c-.68-3.82-3.33-6.17-7.56-6.71a33.67,33.67,0,0,0-9.19.06c-3.72.57-5.75,3.05-5.7,5.93a4.23,4.23,0,0,0,3.37,4.28c4.59,1.32,9.25,2.46,13.88,3.68,3.33.88,6.77,1.54,10,2.7,6.65,2.42,10.84,6.61,11.14,13.16S38.55,288.54,31.74,291.61Z" transform="translate(95.65 -196.68)"/><path d="M87.05,282.45c-.11-6.13,0-12.26,0-18.39,0-5.58-2.74-9-8.9-10.68a45.22,45.22,0,0,0-19.34-.78,20.41,20.41,0,0,0-9.88,4,11.27,11.27,0,0,0-4.48,8.93H55.08c.64,0,1.27-.05,2-.08.52-2.22,1.36-4.25,3.87-5.2a14.62,14.62,0,0,1,10.18-.09c2.35.8,3,2.63,3.07,4.67s-1.23,3.16-3.23,3.76a35.12,35.12,0,0,1-4.49,1c-5.07.82-10.27,1.25-15.2,2.49-5.52,1.39-8.21,5-8.34,9.84-.17,6,2.25,10,7.84,11.79a26.17,26.17,0,0,0,21.67-2c.7-.38,1.32-.85,2.1-1.37a8.66,8.66,0,0,1,.35.92c.74,3.29.55,2.62,3.8,2.7h9.12C87.53,289.91,87.13,286.19,87.05,282.45Zm-13.28-1.2c-.73,3.43-3.28,5.58-7.26,6.09a23.3,23.3,0,0,1-6.13-.07c-2.84-.38-4.33-1.92-4.68-4.27A4.78,4.78,0,0,1,59,277.61,47.38,47.38,0,0,1,65.8,276c2.67-.53,5.38-.93,8.5-1.45A51.42,51.42,0,0,1,73.77,281.25Z" transform="translate(95.65 -196.68)"/><path d="M-15.26,282c-.12-6.18,0-12.37,0-18.55,0-4.61-2.46-8-7.37-9.55a40.46,40.46,0,0,0-26.63.34c-5.45,2-8.77,6.65-8.49,11.2h12.55c.5-2.62,1.7-5,4.79-5.45a30.68,30.68,0,0,1,8.56,0c2.48.33,3.73,2.31,3.77,4.71,0,2-1,3.38-3.62,4-2.22.56-4.55.77-6.83,1.17-4.4.77-8.95,1.2-13.19,2.42-5.42,1.56-7.68,5.44-7.71,10.25s1.87,8.6,7,10.8c4.66,2,9.59,2,14.57,1.22a22,22,0,0,0,10.14-4.38,24.41,24.41,0,0,0,.76,2.62c.17.4.63,1,1,1,4,.08,8,.05,11.46.05C-14.81,289.8-15.19,285.9-15.26,282Zm-13.31-.58c-.68,3.15-3,5.25-6.68,5.81a25,25,0,0,1-6.7,0c-2.81-.34-4.34-2-4.66-4.28a4.85,4.85,0,0,1,3.3-5.4A44.75,44.75,0,0,1-36.83,276c2.79-.54,5.63-.95,8.88-1.48A54.24,54.24,0,0,1-28.57,281.42Z" transform="translate(95.65 -196.68)"/><path d="M157.77,281.4a1.8,1.8,0,0,0-1.1.77c-2.23,3-5.54,4.33-9.48,4.46-7.53.26-12.59-4.18-11.73-10.36h33.93c-.2-2.4-.26-4.53-.57-6.61-2.27-15.57-21.76-23.07-36.49-14-7.36,4.54-10.08,11.07-10,18.75.25,16.37,19.49,26.13,36.05,18.21,5.07-2.43,8-6.32,9.88-11.26C164.58,281.37,161.17,281.35,157.77,281.4Zm-12.18-21c6.15-.15,10.5,3.45,10.44,8.7h-20.6C135.11,264.3,139.6,260.5,145.59,260.36Z" transform="translate(95.65 -196.68)"/><path d="M-61.71,292.6c0,.91-.32,1.32-1.43,1.32q-15.72,0-31.4,0a6,6,0,0,1-.84-.15V237.5h4.93c2.39,0,4.79.1,7.17,0,1.74-.09,2.17.41,2.16,1.89-.06,13.94,0,27.86,0,41.8v2.35h8c3.29,0,6.59,0,9.88,0,1.14,0,1.62.29,1.61,1.34C-61.77,287.44-61.74,290-61.71,292.6Z" transform="translate(95.65 -196.68)"/><path d="M104.22,239.69v51.95c0,2.27,0,2.27-2.63,2.27l-9.31,0a3.35,3.35,0,0,1-.69-.15v-56.2c3.94,0,7.79,0,11.65,0a1.4,1.4,0,0,1,.92.8A3.33,3.33,0,0,1,104.22,239.69Z" transform="translate(95.65 -196.68)"/><path d="M119.88,237.5v56.39c-3.95,0-7.81,0-11.66,0-.35,0-.84-.54-1-.9a3.15,3.15,0,0,1-.06-1.34V239.7c0-2.19,0-2.2,2.52-2.2Z" transform="translate(95.65 -196.68)"/><path d="M-61.23,227.53c0,.66-.46,1.83-.81,1.86-1.35.1-3,.71-3.91-.91-1.67-2.86-3.45-5.65-5.19-8.47-.2-.34-.42-.68-.93-1.48v3.34c0,2-.1,3.94,0,5.9.1,1.47-.55,1.87-2.11,1.77-1-.06-1.54-.27-1.52-1.26,0-4.26,0-8.53,0-12.8,0-.85.31-1.17,1.33-1.24,2.14-.15,3.74.16,4.77,2.15,1.33,2.6,3.07,5,4.65,7.54h.3v-9.56h3.43V220C-61.19,222.48-61.13,225-61.23,227.53Z" transform="translate(95.65 -196.68)"/><path d="M86.66,220.9c-.21-3.3-2.16-5.63-5.88-6.23a47.29,47.29,0,0,0-8.26-.27,1.88,1.88,0,0,0-1.16,1.32c-.13,2.07,0,4.15,0,6.23s-.08,4.15,0,6.23c0,.49.74,1.36,1.09,1.35a49.54,49.54,0,0,0,9.16-.79C85.24,227.9,86.92,224.83,86.66,220.9Zm-5.13,4.18c-1.24,1.68-3.27,2.11-5.43,1.91a1.51,1.51,0,0,1-.94-1.09c-.13-1.34,0-2.69,0-4a29.38,29.38,0,0,1,0-3.87,1.88,1.88,0,0,1,1.31-1.18c2.16-.18,4.19.24,5.32,2A5.2,5.2,0,0,1,81.53,225.08Z" transform="translate(95.65 -196.68)"/><path d="M42.24,214.54a25.5,25.5,0,0,0-4.79-.34c-4.28,0-4.28.05-4.28,3.72v11.49a24.22,24.22,0,0,0,9.74-.41,7.29,7.29,0,0,0,5.65-7.77C48.37,217.61,46.3,215.32,42.24,214.54Zm-2,12.33a23.75,23.75,0,0,1-3.22.19c0-3.27,0-6.34.06-9.38,0-.32.91-.84,1.45-.89,3.17-.24,5.37,1.29,5.87,4A5,5,0,0,1,40.23,226.87Z" transform="translate(95.65 -196.68)"/><path d="M.26,222a3.78,3.78,0,0,0,2-4.82c-.79-2.26-3-2.79-5.35-2.93-1.74-.09-3.49.05-5.23,0-1.29,0-1.84.43-1.8,1.6.08,2.64,0,5.29,0,7.93v5.59h3.84a20.49,20.49,0,0,1,0-3.43c.13-.85-.88-2.21,1-2.43a2.57,2.57,0,0,1,3,2c.15.42.26.87.38,1.31.81,2.89.94,3,4.92,2.37Zm-1.92-2.33c-.82,1.64-2.62,1.47-4.79,1.37.27-1.52.52-2.88.77-4.24a12.85,12.85,0,0,1,3.6.66C-1.58,217.7-1.35,219.07-1.66,219.67Z" transform="translate(95.65 -196.68)"/><path d="M-81.48,225.22c-.31,3-3,4.51-6.84,4.52s-6.26-1.36-6.71-4.39c-.52-3.59-.45-7.25-.62-10.8a5.75,5.75,0,0,1,.88-.25c3.29-.25,3.29-.25,3.29,2.65,0,2,0,3.93,0,5.91a8.39,8.39,0,0,0,.13,1.66A2.89,2.89,0,0,0-88.26,227c1.89,0,2.94-1,3.07-2.49.23-2.5.19-5,.21-7.57,0-2.93,0-2.93,3.58-2.58A105.27,105.27,0,0,1-81.48,225.22Z" transform="translate(95.65 -196.68)"/><path d="M66.61,227.81c-1.32-3.7-2.78-7.37-3.9-11.11-.56-1.92-1.49-2.83-3.79-2.45-.44.08-.94-.06-1.35.05s-1,.39-1.1.7c-1.72,4.75-3.38,9.52-5,14.31,3.66.57,3.85.53,4.63-2.2a1.91,1.91,0,0,1,2.42-1.54c1.47.15,3.21-.57,3.79,1.57.73,2.69,1.33,2.84,4.78,2.11C66.9,228.77,66.77,228.28,66.61,227.81ZM57.25,223c.57-1.88,1.07-3.64,1.6-5.38l.42-.07c.58,1.76,1.16,3.52,1.79,5.45Z" transform="translate(95.65 -196.68)"/><path d="M100,229.51c-2.77,0-5.53,0-8.45,0V214.42H102V217c-1.69,0-3.42.07-5.13,0s-1.64.79-1.66,1.82.26,1.7,1.71,1.61,3.07,0,4.72,0V223c-1.58,0-3.17.08-4.74,0-1.88-.12-1.67,1-1.68,2s-.13,1.94,1.62,1.85,3.6,0,5.49,0C102.79,229.51,102.79,229.51,100,229.51Z" transform="translate(95.65 -196.68)"/><path d="M-17.48,229.51l-7.75,0a4.81,4.81,0,0,1-.74-.13v-15h10.42c0,.77.1,1.52.16,2.63-1.83,0-3.53.07-5.24,0s-1.71.65-1.74,1.76.29,1.83,1.81,1.68a22.62,22.62,0,0,1,2.33,0c2.65,0,2.68,0,2.14,2.62-1.53,0-3.12.07-4.7,0-1.8-.09-1.57,1-1.55,1.9s-.34,2,1.5,1.91,3.71,0,5.51,0C-14.69,229.39-14.8,229.51-17.48,229.51Z" transform="translate(95.65 -196.68)"/><path d="M-31.15,214.44c-.19.59-.35,1.18-.57,1.73-1.5,3.94-3.14,7.86-4.5,11.84-.54,1.59-1.68,1.52-3.07,1.53s-2.26-.06-2.73-1.45c-1.4-4.15-3-8.24-4.5-12.36a11.57,11.57,0,0,1-.32-1.29,3.84,3.84,0,0,1,.45-.14c3.56-.16,3.56-.16,4.53,2.79.91,2.78,1.8,5.56,3,8.37.45-1.43.9-2.86,1.38-4.28s1-2.91,1.49-4.36C-35,214-35,214-31.15,214.44Z" transform="translate(95.65 -196.68)"/><path d="M19.29,225.47c-.2,1.93-1.49,3.38-3.94,3.87a18.66,18.66,0,0,1-4.78.26c-3.16-.2-3.39-.62-2.32-3.26a20.82,20.82,0,0,0,4.31.57c1-.06,1.87-.87,2.79-1.34a10,10,0,0,0-1.89-2c-1.11-.66-2.53-.91-3.64-1.56-3.12-1.81-2.91-5.48.35-7.06a9.66,9.66,0,0,1,7.31-.44c2.1.68.32,1.79.31,2.72a24,24,0,0,0-3.94-.27,6.15,6.15,0,0,0-2.16,1.1c.45.6.74,1.39,1.36,1.77A29.86,29.86,0,0,0,16.22,221C18.53,222,19.48,223.45,19.29,225.47Z" transform="translate(95.65 -196.68)"/><rect x="40.16" y="17.71" width="3.52" height="15.04"/><path d="M27.62,214.36V227c0,2.87-.05,2.92-3.67,2.36V214.36Z" transform="translate(95.65 -196.68)"/></svg>