<svg id="Camada_1" data-name="Camada 1" xmlns="http://www.w3.org/2000/svg" viewBox="0 0 399.1 455"><defs><style>.cls-1,.cls-2{fill:none;stroke:#1e1e1e;stroke-miterlimit:10;}.cls-1{stroke-width:3px;}.cls-2{stroke-width:2px;}</style></defs><path class="cls-1" d="M439.06,319.52c-6,4.39-12.59,10.69-11.72,10.76.66,8.08,4.31,17.59,1.28,23.89-4.54,9.44-16.3,7.17-25.64,7.35a16.73,16.73,0,0,1-1.87-.22c-28.81-2.67-55.85-11.92-82.71-21.94-6.69-2.5-7.6-6.18-2.19-10.84,18.87-16.24,30.2-36.72,34.89-61.06,1.16-6,4.07-7.4,9.06-3.31s10.12,8.07,15.21,12.12c4.06-4.77,7.43-8.74,10.93-12.84-5.35-4.64-10.31-8.89-15.24-13.13,12.23-11.16,24.37-21.65,35.87-32.83,14.94-14.52,28.9-30,37-49.64,10.58-25.67-.85-45.05-28.59-45.18-18.93-.08-38.13,3-56.76,6.84-16.39,3.39-32.17,9.8-46.08,14.19-8.12-27.62-15.19-55.3-24.53-82.18-5.7-16.38-15.38-31.13-33.36-37.5h-9.46c-14.6,5.14-23.15,16.28-29.86,29.58l15.32,5.92c1-1.44,1.91-2.69,2.76-4,12-18.59,22.41-18.73,33.06.64,15.69,28.56,21.63,60.08,26.17,91.91.76,5.34-2.08,7.1-6.75,5.43-24.06-8.62-48-8.57-72,0-5.41,1.93-7.7-.51-6.75-6.22.93-5.49,1.53-11,2.31-16.74-5.9-1.44-11.14-2.74-16.47-4.05-1.23,6.47-2.33,12.24-3.54,18.54-8.23-2.95-15.83-5.83-23.53-8.4-27-9-54.11-16.87-83-14.35-26.08,2.27-37.15,20-27.52,44.29,2.19,5.52,4.65,11.19,8.25,15.83,9,11.69,18.11,23.43,28.35,34,11.48,11.88,24.24,22.53,36.59,33.83-8.47,7.42-16.94,14.43-25,22s-15.93,15.26-23.32,23.43c-11.65,12.88-22.05,26.71-26.9,43.82-3.8,13.39-.68,24.76,9,31.27,10.61,7.14,22.45,8.41,34.95,6.75-.85-5.6-1.57-10.44-2.31-15.25l-4.31-.36c-23.09-1.85-28-10.76-15.75-30.56,17.68-28.54,43-49.76,69.71-71.11,1.72,3,3.29,4.88,4,7.06,2.87,8.62,3.93,18.27,8.52,25.79,7.59,12.47,17,23.89,26.39,35.2,4.4,5.29,4.93,8.4-1.93,11L166.22,345c2.06,5.73,3.87,10.82,5.75,16.06l17.59-6c.94,5.56,1.66,10.2,2.53,14.83,5.16,27.54,11.14,54.83,24.85,79.7,6.51,11.82,14.85,21.8,28.18,26.38h9.46c12.52-4.48,21.31-13.3,27.06-24.85,5.43-10.93,11-22,14.39-33.7,5.9-20.35,10.19-41.17,15.24-62.13,9.27,3.27,18.65,6.83,28.18,9.93,24.93,8.11,50.16,14.6,76.77,12.52,21.33-1.66,33.57-13.54,31.13-32C446.21,337.09,442.09,328.77,439.06,319.52ZM316.89,161.57c29.24-11.69,59-21.32,88.43-23.21,25.52-.11,31.76,10.06,19.73,30-16.7,27.63-41,48.17-65.81,68.14-4.54,3.65-7.23,1.06-8-3.22-4.52-25.11-16.68-45.74-35.68-62.6C312,167.47,310.73,164,316.89,161.57ZM148.25,234c-.28,1.74-2.57,3.14-4.41,5.26-26.06-20.83-50.85-42-68.76-70-4.56-7.11-9.68-15.32-4.52-23.64s14.85-7.6,23.19-7.15c31.13,1.74,60.23,11.67,89,22.92,5.92,2.31,5.24,5.94,1.59,9.14C164.88,187.59,152.66,208.51,148.25,234ZM292.44,355.15c-4.52,27.86-10.12,57.49-23.6,84.88-4,8.09-8.46,18-18.77,18.08-10.79.09-15.37-10.06-19.42-18.5-13.07-27.17-19.12-56.34-23.45-85.95-1.13-7.68,2-8.83,8.59-6.55a102.7,102.7,0,0,0,68.46.16C291.3,344.86,292.87,346.19,292.44,355.15Zm-43.63-16.79c-47.91.11-86.94-39.59-87-88.44a87.68,87.68,0,0,1,88.05-88.24c49,0,88,39.26,88,88.4C337.83,299.61,298.89,338.23,248.81,338.36Z" transform="translate(-50.2 -22.5)"/><path class="cls-1" d="M157.71,364.68c-.3,12.94-11.46,23.76-24.46,23.76-13.23,0-24.62-11.71-24.3-25a24.39,24.39,0,0,1,48.76,1.21Z" transform="translate(-50.2 -22.5)"/><path class="cls-1" d="M233.81,92.2A24.54,24.54,0,0,1,209.55,116c-13.24.22-24.17-11.14-24-24.93a24.12,24.12,0,1,1,48.23,1.1Z" transform="translate(-50.2 -22.5)"/><path class="cls-1" d="M430.53,294.63c-.36,13-11.57,23.83-24.43,23.68a24.29,24.29,0,1,1,24.43-23.68Z" transform="translate(-50.2 -22.5)"/><path class="cls-2" d="M316.57,243.41a54.92,54.92,0,0,0-2.66-11.54,31.15,31.15,0,0,0-4.4-8.44,15.93,15.93,0,0,0-4-3.81,9.39,9.39,0,0,0-5.12-1.63c-4.27,0-8.53,0-12.8,0-.17,0-.33,0-.55,0v1A94,94,0,0,1,286,234.31a32.44,32.44,0,0,1-2.08,7.35,15.88,15.88,0,0,1-6.61,7.7,21.88,21.88,0,0,1-6.68,2.43,57.25,57.25,0,0,1-9.93,1c-3.27.1-6.55.11-9.82.14-5.06,0-10.13-.09-15.19.28a36.28,36.28,0,0,0-6.72,1,12.59,12.59,0,0,0-9,8.05,30.86,30.86,0,0,0-1.66,6.13,73.51,73.51,0,0,0-1,12c-.06,6.78,0,13.56-.05,20.34a9.88,9.88,0,0,0,2,6,16.48,16.48,0,0,0,3.78,3.72,32.45,32.45,0,0,0,8.91,4.44A59.21,59.21,0,0,0,249,317.81a62,62,0,0,0,8.5-.39,53.52,53.52,0,0,0,10.91-2.24,33.83,33.83,0,0,0,9.32-4.48,16.48,16.48,0,0,0,4.23-4.18,9.76,9.76,0,0,0,1.79-5.73c0-4.05,0-8.09,0-12.15v-.77H250.51c0-1,0-1.91,0-2.81,0-.15,0-.3,0-.52h.92q24.33,0,48.66,0a9.7,9.7,0,0,0,5.33-1.58,14.26,14.26,0,0,0,2.95-2.53,25.83,25.83,0,0,0,4.38-6.95,51,51,0,0,0,4.12-18.39A69.08,69.08,0,0,0,316.57,243.41ZM268.78,295a6.15,6.15,0,1,1-6.14,6.16A6.15,6.15,0,0,1,268.78,295Z" transform="translate(-50.2 -22.5)"/><path class="cls-2" d="M280.12,193.14a16,16,0,0,0-3.9-4,32.41,32.41,0,0,0-9.1-4.62,50.39,50.39,0,0,0-10.63-2.35c-1.63-.19-3.27-.28-4.92-.42a3.31,3.31,0,0,1-.5-.09h-5.19c-.4,0-.81.09-1.22.12a53.71,53.71,0,0,0-17.25,3.63,28.06,28.06,0,0,0-7.76,4.55,14.5,14.5,0,0,0-3.12,3.63,9.45,9.45,0,0,0-1.35,4.87c0,4.14,0,8.27,0,12.41v.73h33.25v3.33H222.91c-7.93,0-15.86,0-23.78,0a10.47,10.47,0,0,0-6.87,2.48,19.36,19.36,0,0,0-4.2,5,37.64,37.64,0,0,0-4.15,10A58.72,58.72,0,0,0,182,244c0,.53-.15,1.06-.23,1.59v5.2c.08.53.2,1.06.23,1.59a58.35,58.35,0,0,0,1.86,11.59,38.14,38.14,0,0,0,3.92,9.65,19.55,19.55,0,0,0,4.54,5.46,10.19,10.19,0,0,0,5.14,2.32,7.88,7.88,0,0,0,1,.05h13.34a3.88,3.88,0,0,0,0-.43c.08-2.77.12-5.54.26-8.31A52.76,52.76,0,0,1,214,260.2a21.06,21.06,0,0,1,2.81-6,15.41,15.41,0,0,1,8.46-6,30.48,30.48,0,0,1,6-1.18,145.84,145.84,0,0,1,14.93-.5c3,0,6,0,9,0a90.35,90.35,0,0,0,9.59-.53,30.38,30.38,0,0,0,6-1.27,12.7,12.7,0,0,0,8-7.28,29.66,29.66,0,0,0,1.93-6.86,66.12,66.12,0,0,0,.91-10.41c.08-7.27.09-14.54.11-21.82A9.24,9.24,0,0,0,280.12,193.14Zm-50,11.25a6.14,6.14,0,1,1,6.16-6.12A6.12,6.12,0,0,1,230.13,204.39Z" transform="translate(-50.2 -22.5)"/></svg>