<svg id="Camada_1" data-name="Camada 1" xmlns="http://www.w3.org/2000/svg" viewBox="0 0 264.94 347.04"><defs><style>.cls-1{fill:none;stroke:#1e1e1e;stroke-miterlimit:10;stroke-width:3px;}</style></defs><path class="cls-1" d="M379.82,335.79C358.07,388,306.44,422.05,249.89,422S141.74,387.78,120.1,335.56a17.54,17.54,0,0,1,.06-12.22c15.07-35.64,40.91-60.7,76.5-75.51,3.47-1.46,8.68-1.15,12.21.38,27.3,11.77,54.34,11.9,81.73.25a19.4,19.4,0,0,1,13.61-.25c35.28,14.88,60.79,40,75.7,75.33A17.51,17.51,0,0,1,379.82,335.79Z" transform="translate(-117.53 -76.48)"/><path class="cls-1" d="M331.62,160.22c0,44.95-36.8,81.48-81.87,81.33a81.79,81.79,0,1,1,81.87-81.33Z" transform="translate(-117.53 -76.48)"/></svg>