<svg id="Camada_1" data-name="Camada 1" xmlns="http://www.w3.org/2000/svg" viewBox="0 0 490.1 491.69"><defs><style>.cls-1{fill:#1e1e1e;}</style></defs><path class="cls-1" d="M109.13,1.82c-14.26-.09-28.53,0-42.8,0v.93c-17.9,0-35.79.12-53.69-.07-5.85-.06-7.8,2-7.74,8.08.29,30.7.07,61.42.19,92.14a141.24,141.24,0,0,0,1.21,18c7.36,54,55.67,92.06,112,88.37,51.12-3.36,93.94-48.93,94.87-101C214.23,49.3,168.19,2.15,109.13,1.82Zm13.33,192.33C67.44,202,19,160.3,19.18,104.87c.07-27.33.93-54.67,1.12-82,0-5.46,1.87-7.06,7.19-6.94,14.76.3,29.53.1,44.3.1,0-.25,0-.49,0-.74,18.09.77,36.47-.16,54.23,2.66,42.82,6.81,73.16,45.68,72.35,90.25C197.61,151.19,165,188.1,122.46,194.15Z" transform="translate(-4.9 -1.78)"/><path class="cls-1" d="M390.63,285.64c-30.48.08-61,.85-91.46,1.28-3.82.06-7.64,0-12.4,0,0,35.1-.25,69,0,102.83.55,62.89,53.76,109.94,116.2,103,51.37-5.69,91.34-49.74,92-101.42A104.06,104.06,0,0,0,390.63,285.64ZM384.43,479a90,90,0,0,1-83.55-91c.27-27.07,1-54.15,1.25-81.22.05-5.35,1.73-7.23,7.11-7.12,14,.28,28,.09,42.07.09,0-.41.05-.8.08-1.21,19.95,1.28,40.35.44,59.81,4.27,45.14,8.86,75.41,54.53,68.44,100C472.54,449.12,430.81,482.53,384.43,479Z" transform="translate(-4.9 -1.78)"/><path class="cls-1" d="M212.46,382.9c-2.54-49.24-41.59-91.21-90.78-95.77-19.39-1.81-39.1-.29-58.66-.29v.27c-16.69,0-33.38.2-50.06-.11-5.85-.12-8.12,1.39-7.91,7.62.43,13.78,0,27.58.17,41.37.28,22.7-.91,45.59,1.5,68.09,5.21,48.52,47.46,90.18,103.85,89.35C170.73,492.55,215.57,443,212.46,382.9ZM123.7,478.44c-53.38,9.49-104.23-33.21-104.78-88-.15-13.55,0-27.09,0-40.64h1.35c0-14.52.15-29-.07-43.56-.07-5,1.77-6.81,6.78-6.78,28.32.16,56.66-.66,85,.26,44.91,1.45,82.79,38,86.52,80C202.87,429.84,168.7,470.46,123.7,478.44Z" transform="translate(-4.9 -1.78)"/><path class="cls-1" d="M408.9,4.2c-20.14-2.72-41-.45-61.49-.45V3.47c-17.42,0-34.83.27-52.23-.13-6.89-.14-8.43,2.49-8.36,8.92.31,30.47,0,61,.22,91.43A113.24,113.24,0,0,0,289,124.58c11.15,55.92,61.11,91.26,117.46,83.34,49.45-6.94,87.18-50.06,87.76-100.26C494.79,55.89,458.75,10.9,408.9,4.2Zm-3.7,190.13A89,89,0,0,1,301.89,117.2c-1.47-11.68-1.05-23.63-1-35.45.13-19.12,1-38.23.86-57.33-.06-7.26,2.5-9,9.24-8.76,14.51.45,29,.15,43.56.15,0-.25,0-.51,0-.76,17.85.76,36-.35,53.51,2.66,42.64,7.33,73.77,46.27,73,88.69A90.34,90.34,0,0,1,405.2,194.33Z" transform="translate(-4.9 -1.78)"/><path class="cls-1" d="M109.22,25a80.65,80.65,0,1,0,80.7,80.87C190.27,61.57,153.9,25.13,109.22,25ZM95.65,138.41c-15.79,3-32-6.16-37.79-21.38A33.32,33.32,0,0,1,70.55,76.88a32.28,32.28,0,0,1,40.63,2.86c-4.45,8.91-6.93,10.07-15.31,7.12-10-3.5-20.38,1.42-24.18,11.49a19.48,19.48,0,0,0,10.8,24.56c9.76,3.86,19.31-.06,23.42-10.47-3.37,0-6,0-8.67,0-8.92,0-9-.42-8.76-9.54.14-4.2,1.84-5.45,5.72-5.36,6.77.16,13.58.49,20.29-.09,6.91-.6,7.45,3.46,7.5,8.44C122.09,122.46,111.66,135.34,95.65,138.41Zm54.92-29.62c-.26,3.53-.51,6.81-.74,10-8.83,2.23-8.83,2.23-11-9.46-3-3.15-10.68,2.76-10.82-5.9s7.33-3.76,11.08-6.72c.88-5.06-.51-13.5,10.53-9.18.29,2.93.62,6.17,1,9.77l10.72,1.37c.11,2.88.24,5.62.39,9.18Z" transform="translate(-4.9 -1.78)"/><path class="cls-1" d="M108.77,308.94c-44,.05-80.35,36.33-80.43,80.32-.08,44.52,36.29,81.18,80.47,81.14a80.73,80.73,0,0,0,0-161.46Zm-6.86,122a32.64,32.64,0,0,0-23.56.64c-4,1.54-8.17,2.51-14.33,4.37,2.74-8.12,5.3-14.12,6.68-20.38a20.57,20.57,0,0,0-.61-11.52c-7.71-19.16-3.88-40.09,10.5-54.29a49.34,49.34,0,0,1,84.13,36.28C163.92,417.41,132,440.8,101.91,431Z" transform="translate(-4.9 -1.78)"/><path class="cls-1" d="M391,25.48a80.24,80.24,0,0,0-80.8,79.73c-.23,44.09,35.92,80.64,79.9,80.77,45,.14,80.73-35.33,80.79-80.27S435.79,25.57,391,25.48ZM363.25,52.25a10.85,10.85,0,0,1,10.81,11.2c-.13,6-5.26,11.24-11.08,11.21s-11.3-5.52-11.45-11.15C351.39,57.36,356.86,52.1,363.25,52.25ZM367.39,143c-19.26,0-15.73.7-15.93-15.09-.17-12.82.17-25.65-.13-38.47-.13-5.77,1.5-8.28,7.74-8.09,18,.53,14.68-1.88,15,15,.1,5.32,0,10.65,0,16,0,8-.26,16,.09,24C374.42,141.47,372.21,143,367.39,143Zm68.3,0a38.85,38.85,0,0,0-5.81,0c-5.75.49-7.61-2.17-7.41-7.73.32-8.7.17-17.41,0-26.13-.12-5.4-1.54-10.22-8.18-10.83s-10,3.34-10.42,9.36a248.8,248.8,0,0,0-.5,28.24c.4,8-4.59,7.07-9.41,7s-9.78,1.11-9.52-6.88c.48-15,0-30,.26-45,.06-3.15,1.8-9,2.75-9,5.68,0,12.65-4,16.4,3.57,3.18-1.19,6-2.57,9-3.35,16.91-4.45,29,4.53,29.38,21.89.24,10.64-.14,21.29.16,31.92C442.5,141.2,440.64,143.3,435.69,143Z" transform="translate(-4.9 -1.78)"/><path class="cls-1" d="M143,355.61a40.42,40.42,0,0,0-49.59-4.43c-15.57,10.25-22.44,30-15.13,47.19,3.21,7.55,5.43,14.22,1,22.61,8.57-3.63,15.79-2.25,23.91.85,17.56,6.69,37.34-1.43,46.9-17.68C159.24,388.59,156.23,368.13,143,355.61Zm-8.79,50.46c-2.06,1.46-5.66,1.86-8.28,1.29-16-3.51-26.91-13.41-33.72-28.05-.79-1.68-.83-3.71-1.54-7.16,1.29-2.32,2.49-6.18,5-8.65,3.15-3.07,7.29-3.17,9.34,1.72,1.85,4.42,5.69,8.78,1.19,14.06-.76.89.11,4.26,1.27,5.52a42.44,42.44,0,0,0,9.81,8.37c1.73,1,4.82-.35,7.29-.76,2.67-.43,5.84-2.17,7.89-1.27,3,1.33,6.94,4.21,7.41,6.95C140.26,400.45,136.8,404.19,134.17,406.07Z" transform="translate(-4.9 -1.78)"/><path class="cls-1" d="M391,310.89c-43.66,0-79.55,35.67-79.87,78.79-.32,44.42,35.43,80.41,79.09,80.8,44.31.4,80.46-35.44,80.58-79.21A79.73,79.73,0,0,0,391,310.89Zm37.74,59.64a5.56,5.56,0,0,0-2.2,4.82c.06,21.16-13.77,41.29-33.65,48.42-15.06,5.39-29.82,4.2-43.95-3.45a5,5,0,0,1-1.35-1.06c9.35.23,17.92-2,25.81-8-8.27-.91-13.89-4.88-17.08-12.79h7.55c-8.53-3.16-13.23-9-14.06-18.09l7.76,2c-7.92-8.93-9.63-16.67-5.07-24.43,9.93,11.46,22.35,17.93,37.62,19a47,47,0,0,1,.05-6.84A17.41,17.41,0,0,1,402,355.51c6.77-2.47,13-1.09,18.43,3.61a2.47,2.47,0,0,0,2.78.7c3.18-1.15,6.39-2.26,9.68-3.43a18.11,18.11,0,0,1-7.17,9.05c.09.16.16.32.25.5l9-2.36a3.47,3.47,0,0,0,.37.26A85.23,85.23,0,0,1,428.69,370.53Z" transform="translate(-4.9 -1.78)"/></svg>